<svg xmlns="http://www.w3.org/2000/svg" width="25.621" height="25.622" viewBox="0 0 25.621 25.622"><defs><style>.a{fill:#fff;}</style></defs><path class="a" d="M22.171,0H3.455A3.453,3.453,0,0,0,0,3.453V22.169a3.453,3.453,0,0,0,3.453,3.453h9.231l.016-9.156H10.322a.561.561,0,0,1-.561-.559L9.75,12.955a.561.561,0,0,1,.561-.563h2.374V9.54c0-3.309,2.021-5.111,4.973-5.111h2.422a.561.561,0,0,1,.561.561V7.479a.561.561,0,0,1-.561.561H18.595c-1.605,0-1.916.763-1.916,1.883v2.469h3.528a.561.561,0,0,1,.557.627l-.35,2.951a.561.561,0,0,1-.557.5H16.694l-.016,9.156h5.492a3.453,3.453,0,0,0,3.453-3.453V3.453A3.453,3.453,0,0,0,22.171,0Z" transform="translate(-0.002)"/></svg>