<svg xmlns="http://www.w3.org/2000/svg" width="26.334" height="26.333" viewBox="0 0 26.334 26.333"><defs><style>.a{fill:#fff;}</style></defs><path class="a" d="M26.254,7.738a9.667,9.667,0,0,0-.612-3.2A6.453,6.453,0,0,0,24.123,2.21,6.455,6.455,0,0,0,21.791.691,9.665,9.665,0,0,0,18.6.079C17.191.015,16.742,0,13.167,0S9.142.015,7.738.079a9.668,9.668,0,0,0-3.2.612A6.453,6.453,0,0,0,2.21,2.21,6.454,6.454,0,0,0,.691,4.542a9.666,9.666,0,0,0-.611,3.2C.015,9.142,0,9.591,0,13.166s.015,4.025.08,5.429a9.664,9.664,0,0,0,.612,3.2A6.452,6.452,0,0,0,2.21,24.123a6.451,6.451,0,0,0,2.332,1.519,9.661,9.661,0,0,0,3.2.612c1.4.064,1.853.079,5.429.079s4.024-.015,5.429-.079a9.662,9.662,0,0,0,3.2-.612,6.731,6.731,0,0,0,3.851-3.851,9.663,9.663,0,0,0,.612-3.2c.064-1.4.079-1.853.079-5.429s-.015-4.024-.079-5.429Zm-2.37,10.749a7.285,7.285,0,0,1-.453,2.445,4.36,4.36,0,0,1-2.5,2.5,7.285,7.285,0,0,1-2.445.453c-1.388.063-1.8.077-5.32.077s-3.932-.013-5.321-.077A7.287,7.287,0,0,1,5.4,23.431a4.08,4.08,0,0,1-1.514-.985A4.079,4.079,0,0,1,2.9,20.932a7.285,7.285,0,0,1-.453-2.445c-.063-1.388-.077-1.8-.077-5.32s.013-3.932.077-5.321A7.29,7.29,0,0,1,2.9,5.4a4.082,4.082,0,0,1,.985-1.514A4.077,4.077,0,0,1,5.4,2.9a7.284,7.284,0,0,1,2.445-.453c1.388-.063,1.8-.077,5.32-.077h0c3.516,0,3.932.013,5.321.077a7.286,7.286,0,0,1,2.445.453,4.082,4.082,0,0,1,1.514.985A4.077,4.077,0,0,1,23.431,5.4a7.278,7.278,0,0,1,.453,2.445c.063,1.388.077,1.8.077,5.32S23.948,17.1,23.884,18.487Zm0,0" transform="translate(0 0)"/><path class="a" d="M131.3,124.539a6.761,6.761,0,1,0,6.761,6.761A6.761,6.761,0,0,0,131.3,124.539Zm0,11.15a4.389,4.389,0,1,1,4.389-4.389A4.389,4.389,0,0,1,131.3,135.689Zm0,0" transform="translate(-118.134 -118.134)"/><path class="a" d="M365.09,90.205a1.58,1.58,0,1,1-1.58-1.58A1.58,1.58,0,0,1,365.09,90.205Zm0,0" transform="translate(-343.314 -84.067)"/></svg>