<svg xmlns="http://www.w3.org/2000/svg" width="73" height="73" viewBox="0 0 73 73"><defs><style>.a{isolation:isolate;}.b{fill:#e3f8fa;}.c{fill:#26c6da;}</style></defs><g class="a"><path class="b" d="M59.313,73H13.688A13.687,13.687,0,0,1,0,59.313V13.688A13.687,13.687,0,0,1,13.688,0H59.313A13.687,13.687,0,0,1,73,13.688V59.313A13.687,13.687,0,0,1,59.313,73Z"/><path class="c" d="M8,24.9a16.43,16.43,0,0,0,6.8,13.158V44.5l6.214-3.41a19.627,19.627,0,0,0,5.235.707c10.079,0,18.25-7.565,18.25-16.9S36.329,8,26.25,8,8,15.565,8,24.9Zm16.325-4.731,4.761,4.957,8.954-4.957-9.976,10.59L23.419,25.8l-9.07,4.957Z" transform="translate(10.25 10.25)"/></g></svg>