<svg xmlns="http://www.w3.org/2000/svg" width="26" height="26" viewBox="0 0 26 26"><defs><style>.a{fill:none;}.b{opacity:0.3;}</style></defs><path class="a" d="M0,0H26V26H0Z"/><path class="b" d="M12,16c-2.69,0-5.77,1.28-6,2H18C17.8,17.29,14.7,16,12,16Z" transform="translate(1 1.455)"/><circle class="b" cx="2" cy="2" r="2" transform="translate(11 6.6)"/><path d="M13,15.25c-3,0-9,1.507-9,4.5V22H22V19.75C22,16.757,16,15.25,13,15.25Zm-6.75,4.5C6.5,18.94,9.974,17.5,13,17.5s6.525,1.451,6.75,2.25ZM13,13A4.5,4.5,0,1,0,8.5,8.5,4.5,4.5,0,0,0,13,13Zm0-6.75A2.25,2.25,0,1,1,10.75,8.5,2.257,2.257,0,0,1,13,6.25Z"/></svg>