<svg xmlns="http://www.w3.org/2000/svg" width="26" height="26" viewBox="0 0 26 26"><defs><style>.a{fill:none;}.b{opacity:0.3;}</style></defs><path class="a" d="M0,0H26V26H0Z"/><path class="b" d="M15.55,11l2.76-5H6.16l2.37,5Z" transform="translate(1.04 0.632)"/><path d="M17,14.1a2.189,2.189,0,0,0,1.925-1.133l3.938-7.139A1.1,1.1,0,0,0,21.91,4.2H5.631L4.6,2H1V4.2H3.2l3.96,8.349L5.675,15.233A2.2,2.2,0,0,0,7.6,18.5H20.8V16.3H7.6l1.21-2.2ZM6.676,6.4H20.04L17,11.9H9.283ZM7.6,19.6a2.2,2.2,0,1,0,2.2,2.2A2.2,2.2,0,0,0,7.6,19.6Zm11,0a2.2,2.2,0,1,0,2.2,2.2A2.2,2.2,0,0,0,18.6,19.6Z" transform="translate(0)"/></svg>