<svg xmlns="http://www.w3.org/2000/svg" width="16" height="16" viewBox="0 0 16 16"><defs><style>.a{fill:none;}.b,.c{fill:#fff;}.b{opacity:0.3;}</style></defs><path class="a" d="M0,0H16V16H0Z"/><path class="b" d="M15.55,11l2.76-5H6.16l2.37,5Z" transform="translate(-4.159 -2.526)"/><path class="c" d="M9.732,8.6a1.2,1.2,0,0,0,1.05-.618l2.149-3.894a.6.6,0,0,0-.522-.888H3.527L2.962,2H1V3.2H2.2L4.361,7.754l-.81,1.464A1.2,1.2,0,0,0,4.6,11h7.2V9.8H4.6l.66-1.2ZM4.1,4.4h7.292l-1.656,3H5.519Zm.5,7.2a1.2,1.2,0,1,0,1.2,1.2A1.2,1.2,0,0,0,4.6,11.6Zm6,0a1.2,1.2,0,1,0,1.2,1.2A1.2,1.2,0,0,0,10.6,11.6Z"/></svg>