<svg xmlns="http://www.w3.org/2000/svg" width="18.415" height="18.415" viewBox="0 0 18.415 18.415"><defs><style>.a{fill:none;}.b{fill:#4a4a4a;}</style></defs><path class="a" d="M0,0H18.415V18.415H0Z"/><path class="a" d="M0,0H18.415V18.415H0Z"/><g transform="translate(2.642 2.741)"><path class="b" d="M10.009,14.083l3.184,1.926a.765.765,0,0,0,1.143-.829l-.844-3.622,2.816-2.44a.766.766,0,0,0-.437-1.343l-3.706-.315-1.45-3.422a.768.768,0,0,0-1.412,0L7.853,7.453l-3.706.315a.766.766,0,0,0-.437,1.343l2.816,2.44-.844,3.622A.765.765,0,0,0,6.825,16Z" transform="translate(-3.443 -3.573)"/></g></svg>